#!OML:ASF F:\VICON\USERDATA\INSTALL\rory3\rory3.ASF
:FULLY-SPECIFIED
:DEGREES
18
root 1.1464224739478177 18.139687485819618 -11.826989951310905 -2.008721962525126 -3.844184776648593 -2.0351401452427225
lfemur -16.747294520691188 -2.2313908719284714 -19.895599878459944
ltibia 18.54430693325161
lfoot 0.46502987674355634 -2.70234742621676
ltoes -1.490862809095307
rfemur 2.6425601265446197 4.995528063444434 25.510700249548325
rtibia 52.25539130392355
rfoot 16.64217446676794 1.0449862470528064
rtoes 8.031062983200368
lowerback 8.664065234337476 2.023601936450363 2.7839264382223736
upperback -0.3223626421250443 3.025792682774493 0.8691240767363569
thorax -5.099006585978152 1.431582587913635 -1.0467920182502364
lowerneck -17.0276964246952 -3.208713051969853 -1.8251625865838699
upperneck 22.696582018851377 -4.075054825219131 0.3347951386513116
head 10.09108424723232 -1.99842187304499 -0.13168205492509769
lclavicle -2.797198147253093e-15 -4.1600763619645484e-16
lhumerus -38.607586517164854 9.870282422608597 79.6116199196451
lradius 18.108915201279846
lwrist -1.0797216032841712
lhand -25.560207820602134 21.02600720977463
lfingers 7.1250199999999975
lthumb 0.9705012351294565 51.00350725918884
rclavicle -2.797198147253093e-15 -4.1600763619645484e-16
rhumerus -28.65849863391461 -17.948300135178226 -79.42479886063948
rradius 25.550397657338316
rwrist 5.960560638603485
rhand -17.690698827437686 26.473582673066907
rfingers 7.1250199999999975
rthumb 8.568851165749871 -3.3325274475942495
19
root 1.186291544953186 18.2089835973424 -10.92829001578371 -2.3716390929072264 -3.2936765124148266 -0.7265103798743724
lfemur -13.603796407245106 -2.163651144042326 -22.13169669561151
ltibia 19.68770609498648
lfoot -2.272333907958504 -2.143068313794127
ltoes -2.4442815923709214
rfemur -4.005626224219554 4.359920357152804 23.80450269883678
rtibia 62.6729842306972
rfoot 10.100380695703231 -3.145565844063197
rtoes 7.03284477109845
lowerback 9.47497496762721 1.7742634973314582 1.2516599868831695
upperback -0.28570062032770815 2.5411245334925128 0.6831069770685027
thorax -5.591654989433537 1.225224307966029 -0.3495208408349214
lowerneck -16.65640156822766 -3.081796430751923 -1.7684533036902312
upperneck 21.47319582177564 -3.916697568177426 0.3892675380854428
head 9.584817648981295 -1.92098538182404 -0.08241841545390452
lclavicle -2.7971981595341237e-15 -4.160076167795146e-16
lhumerus -37.26098851768936 6.82620823205202 81.156711213095
lradius 20.27341102601152
lwrist 0.8556738207694328
lhand -25.696907184045056 23.784099368243353
lfingers 7.1250199999999975
lthumb 0.8385259234402344 53.762199344768725
rclavicle -2.7971981595341237e-15 -4.160076167795146e-16
rhumerus -29.771895645388174 -18.307199532223862 -79.20149962461409
rradius 24.71880021479739
rwrist 5.63331144305828
rhand -17.424701077293804 17.914118916580044
rfingers 7.1250199999999975
rthumb 8.825568918076927 -11.881380784961948
20
root 1.2046010993173828 18.20058407642786 -10.085090471019809 -2.808375646745525 -2.498139008001001 -0.003077036213172235
lfemur -10.779998183672163 -2.556609631439941 -23.37699473010148
ltibia 20.343906596480338
lfoot -4.790531082281515 -1.435359249121284
ltoes 1.4077630384261703
rfemur -10.637701334319802 3.313704079060094 22.775704362725893
rtibia 68.88458158575254
rfoot 2.4226388174839606 -7.906917090429497
rtoes 5.108247611647529
lowerback 9.6791123984452 1.3749058473894684 0.3010071390660296
upperback 0.36269737969029847 1.897797029008722 0.6875559089685973
thorax -5.065017393490786 0.9368827155692312 0.28337051334992824
lowerneck -17.406891187777717 -3.013378255766076 -1.6320950093456408
upperneck 21.119799803565115 -3.7866798205288963 0.17235989809115937
head 9.590437501399098 -1.8718176069208365 -0.17165495735556865
lclavicle -2.7971981874458775e-15 -4.160076228145161e-16
lhumerus -34.93309199473256 6.009980061424836 81.47270939323249
lradius 21.77350758384404
lwrist 2.4469767140259497
lhand -27.103600024327974 19.067013135611827
lfingers 7.1250199999999975
lthumb -0.5201580238651634 49.046113106796625
rclavicle -2.7971981874458775e-15 -4.160076228145161e-16
rhumerus -29.306296938821568 -20.560795701743288 -78.50350197108428
rradius 22.83580595538702
rwrist 9.412722190879924
rhand -17.225802740651268 20.475208203490467
rfingers 7.1250199999999975
rthumb 9.017497252212383 -9.312061882429138
21
root 1.1756263480319762 18.173850283277478 -7.819813877257269 -2.8806937248626947 -1.848432520381139 0.5134042692901835
lfemur -8.250696319571716 -2.5850660799204306 -24.873649852834802
ltibia 20.984769038375298
lfoot -6.3611943342671795 -0.17653479233302383
ltoes 0.39315276148445166
rfemur -15.57735666316442 3.5143376863416025 21.970451149025106
rtibia 71.18948595010113
rfoot -2.4953118170113013 -9.009113303208338
rtoes 7.831424308053192
lowerback 10.005711411133175 0.886717097461166 -0.3895528745639738
upperback 0.4423584249105495 1.2938361503738711 0.7308343445398301
thorax -5.080023624234726 0.6399996694777079 0.7702075519861291
lowerneck -16.868818310982157 -2.8999438558884867 -1.8336258948794564
upperneck 20.932834935972046 -3.67646665264541 0.2929485957553758
head 9.406928641157526 -1.791622773109683 -0.06299002587367536
lclavicle -2.7966478392773322e-15 -4.1565357481924614e-16
lhumerus -32.6161455832445 3.9803103421969004 82.2077952814639
lradius 23.16165588826623
lwrist 3.7936618151762294
lhand -27.615863494411098 21.420347148111354
lfingers 7.1250199999999975
lthumb -0.7174844013508657 51.72643255766815
rclavicle -2.7971536844525347e-15 -4.159781702506766e-16
rhumerus -30.371466083798257 -22.319732251807128 -78.07422114775805
rradius 22.488615433119254
rwrist 10.0495569347142
rhand -17.37833200483507 21.228356610797523
rfingers 7.1250199999999975
rthumb 8.822035377951389 -8.856334453779496
22
root 1.1424582153099063 18.11775070934883 -6.290102748511687 -2.740674172180917 -1.1367997395576435 0.845231284911744
lfemur -5.961080914928123 -2.4244478071300746 -26.00945142945676
ltibia 21.46683747067889
lfoot -7.141230817168852 0.6844823049328397
ltoes -1.2691427417033894
rfemur -19.62919805062595 4.3646183207024105 21.238714270644632
rtibia 69.85553251877263
rfoot -6.8396427361058105 -7.923227299959213
rtoes 5.275483761514218
lowerback 10.269313430111596 0.466005057915279 -0.8795367562020979
upperback 0.4917631071693441 0.6535679381830342 0.8496554850793158
thorax -5.08071034703077 0.32658044090421084 1.3097568480380968
lowerneck -16.70440823399693 -2.823837657007595 -2.021170480975077
upperneck 20.803706916695823 -3.5375159328974237 0.2778343779393738
head 9.318365853290231 -1.7409609030672368 -0.02600799168075274
lclavicle -2.7972469277198114e-15 -4.1605150561500193e-16
lhumerus -30.062448148046396 1.3924465852714238 82.86381522726232
lradius 24.7860158229529
lwrist 4.429328657401279
lhand -28.104310161946408 21.737314190309977
lfingers 7.1250199999999975
lthumb -1.0768252838923678 52.16001641581961
rclavicle -2.796604175157312e-15 -4.1561172696730555e-16
rhumerus -31.426473431176404 -23.09279768249865 -77.94265390538175
rradius 23.01077556301844
rwrist 8.800587412263035
rhand -17.722586677327364 22.20681943192836
rfingers 7.1250199999999975
rthumb 8.519255423739704 -8.128963106674298
